<svg width="770" height="105" viewBox="0 0 770 105" fill="none" xmlns="http://www.w3.org/2000/svg">
<path d="M105.713 19.0156H129.575C134.468 19.0156 138.672 19.748 142.188 21.2129C145.732 22.6777 148.457 24.8457 150.361 27.7168C152.266 30.5879 153.218 34.1182 153.218 38.3076C153.218 41.7354 152.632 44.6797 151.46 47.1406C150.317 49.5723 148.691 51.6084 146.582 53.249C144.502 54.8604 142.056 56.1494 139.243 57.1162L135.068 59.3135H114.326L114.238 49.0303H129.663C131.978 49.0303 133.896 48.6201 135.42 47.7998C136.943 46.9795 138.086 45.8369 138.848 44.3721C139.639 42.9072 140.034 41.208 140.034 39.2744C140.034 37.2236 139.653 35.4512 138.892 33.957C138.13 32.4629 136.973 31.3203 135.42 30.5293C133.867 29.7383 131.919 29.3428 129.575 29.3428H118.896V83H105.713V19.0156ZM141.484 83L126.895 54.4795L140.825 54.3916L155.591 82.3848V83H141.484ZM184.463 83.8789C180.771 83.8789 177.461 83.293 174.531 82.1211C171.602 80.9199 169.111 79.2646 167.061 77.1553C165.039 75.0459 163.486 72.5996 162.402 69.8164C161.318 67.0039 160.776 64.0156 160.776 60.8516V59.0938C160.776 55.4902 161.289 52.1943 162.314 49.2061C163.34 46.2178 164.805 43.625 166.709 41.4277C168.643 39.2305 170.986 37.5459 173.74 36.374C176.494 35.1729 179.6 34.5723 183.057 34.5723C186.426 34.5723 189.414 35.1289 192.021 36.2422C194.629 37.3555 196.812 38.9375 198.569 40.9883C200.356 43.0391 201.704 45.5 202.612 48.3711C203.521 51.2129 203.975 54.377 203.975 57.8633V63.1367H166.182V54.6992H191.538V53.7324C191.538 51.9746 191.216 50.4072 190.571 49.0303C189.956 47.624 189.019 46.5107 187.759 45.6904C186.499 44.8701 184.888 44.46 182.925 44.46C181.255 44.46 179.819 44.8262 178.618 45.5586C177.417 46.291 176.436 47.3164 175.674 48.6348C174.941 49.9531 174.385 51.5059 174.004 53.293C173.652 55.0508 173.477 56.9844 173.477 59.0938V60.8516C173.477 62.7559 173.74 64.5137 174.268 66.125C174.824 67.7363 175.601 69.1279 176.597 70.2998C177.622 71.4717 178.853 72.3799 180.288 73.0244C181.753 73.6689 183.408 73.9912 185.254 73.9912C187.539 73.9912 189.663 73.5518 191.626 72.6729C193.618 71.7646 195.332 70.4023 196.768 68.5859L202.92 75.2656C201.924 76.7012 200.562 78.0781 198.833 79.3965C197.134 80.7148 195.083 81.7988 192.681 82.6484C190.278 83.4688 187.539 83.8789 184.463 83.8789ZM236.846 72.2773V51.0957C236.846 49.5723 236.597 48.2686 236.099 47.1846C235.601 46.0713 234.824 45.207 233.77 44.5918C232.744 43.9766 231.411 43.6689 229.771 43.6689C228.364 43.6689 227.148 43.918 226.123 44.416C225.098 44.8848 224.307 45.5732 223.75 46.4814C223.193 47.3604 222.915 48.4004 222.915 49.6016H210.259C210.259 47.5801 210.728 45.6611 211.665 43.8447C212.603 42.0283 213.965 40.4316 215.752 39.0547C217.539 37.6484 219.663 36.5498 222.124 35.7588C224.614 34.9678 227.397 34.5723 230.474 34.5723C234.165 34.5723 237.446 35.1875 240.317 36.418C243.188 37.6484 245.444 39.4941 247.085 41.9551C248.755 44.416 249.59 47.4922 249.59 51.1836V71.5303C249.59 74.1377 249.751 76.2764 250.073 77.9463C250.396 79.5869 250.864 81.0225 251.479 82.2529V83H238.691C238.076 81.7109 237.607 80.0996 237.285 78.166C236.992 76.2031 236.846 74.2402 236.846 72.2773ZM238.516 54.04L238.604 61.2031H231.528C229.858 61.2031 228.408 61.3936 227.178 61.7744C225.947 62.1553 224.937 62.6973 224.146 63.4004C223.354 64.0742 222.769 64.8652 222.388 65.7734C222.036 66.6816 221.86 67.6777 221.86 68.7617C221.86 69.8457 222.109 70.8271 222.607 71.7061C223.105 72.5557 223.823 73.2295 224.761 73.7275C225.698 74.1963 226.797 74.4307 228.057 74.4307C229.961 74.4307 231.616 74.0498 233.022 73.2881C234.429 72.5264 235.513 71.5889 236.274 70.4756C237.065 69.3623 237.476 68.3076 237.505 67.3115L240.845 72.6729C240.376 73.874 239.731 75.1191 238.911 76.4082C238.12 77.6973 237.109 78.9131 235.879 80.0557C234.648 81.1689 233.169 82.0918 231.44 82.8242C229.712 83.5273 227.661 83.8789 225.288 83.8789C222.271 83.8789 219.531 83.2783 217.07 82.0771C214.639 80.8467 212.705 79.1621 211.27 77.0234C209.863 74.8555 209.16 72.3945 209.16 69.6406C209.16 67.1504 209.629 64.9385 210.566 63.0049C211.504 61.0713 212.881 59.4453 214.697 58.127C216.543 56.7793 218.843 55.7686 221.597 55.0947C224.351 54.3916 227.544 54.04 231.177 54.04H238.516ZM278.989 73.9912C280.542 73.9912 281.919 73.6982 283.12 73.1123C284.321 72.4971 285.259 71.6475 285.933 70.5635C286.636 69.4502 287.002 68.1465 287.031 66.6523H298.94C298.911 69.9922 298.018 72.9658 296.26 75.5732C294.502 78.1514 292.144 80.1875 289.185 81.6816C286.226 83.1465 282.915 83.8789 279.253 83.8789C275.562 83.8789 272.339 83.2637 269.585 82.0332C266.86 80.8027 264.59 79.1035 262.773 76.9355C260.957 74.7383 259.595 72.1895 258.687 69.2891C257.778 66.3594 257.324 63.2246 257.324 59.8848V58.6104C257.324 55.2412 257.778 52.1064 258.687 49.2061C259.595 46.2764 260.957 43.7275 262.773 41.5596C264.59 39.3623 266.86 37.6484 269.585 36.418C272.31 35.1875 275.503 34.5723 279.165 34.5723C283.062 34.5723 286.475 35.3193 289.404 36.8135C292.363 38.3076 294.678 40.4463 296.348 43.2295C298.047 45.9834 298.911 49.25 298.94 53.0293H287.031C287.002 51.4473 286.665 50.0117 286.021 48.7227C285.405 47.4336 284.497 46.4082 283.296 45.6465C282.124 44.8555 280.674 44.46 278.945 44.46C277.1 44.46 275.591 44.8555 274.419 45.6465C273.247 46.4082 272.339 47.4629 271.694 48.8105C271.05 50.1289 270.596 51.6377 270.332 53.3369C270.098 55.0068 269.98 56.7646 269.98 58.6104V59.8848C269.98 61.7305 270.098 63.5029 270.332 65.2021C270.566 66.9014 271.006 68.4102 271.65 69.7285C272.324 71.0469 273.247 72.0869 274.419 72.8486C275.591 73.6104 277.114 73.9912 278.989 73.9912ZM329.57 35.4512V44.416H301.885V35.4512H329.57ZM308.74 23.7178H321.396V68.6738C321.396 70.0508 321.572 71.1055 321.924 71.8379C322.305 72.5703 322.861 73.083 323.594 73.376C324.326 73.6396 325.249 73.7715 326.362 73.7715C327.153 73.7715 327.856 73.7422 328.472 73.6836C329.116 73.5957 329.658 73.5078 330.098 73.4199L330.142 82.7363C329.058 83.0879 327.886 83.3662 326.626 83.5713C325.366 83.7764 323.975 83.8789 322.451 83.8789C319.668 83.8789 317.236 83.4248 315.156 82.5166C313.105 81.5791 311.523 80.085 310.41 78.0342C309.297 75.9834 308.74 73.2881 308.74 69.9482V23.7178ZM393.291 66.2568C393.291 65.1143 393.115 64.0889 392.764 63.1807C392.441 62.2432 391.826 61.3936 390.918 60.6318C390.01 59.8408 388.735 59.0645 387.095 58.3027C385.454 57.541 383.33 56.75 380.723 55.9297C377.822 54.9922 375.068 53.9375 372.461 52.7656C369.883 51.5938 367.598 50.2314 365.605 48.6787C363.643 47.0967 362.09 45.2656 360.947 43.1855C359.834 41.1055 359.277 38.6885 359.277 35.9346C359.277 33.2686 359.863 30.8516 361.035 28.6836C362.207 26.4863 363.848 24.6113 365.957 23.0586C368.066 21.4766 370.557 20.2607 373.428 19.4111C376.328 18.5615 379.507 18.1367 382.964 18.1367C387.681 18.1367 391.797 18.9863 395.312 20.6855C398.828 22.3848 401.553 24.7139 403.486 27.6729C405.449 30.6318 406.431 34.0156 406.431 37.8242H393.335C393.335 35.9492 392.939 34.3086 392.148 32.9023C391.387 31.4668 390.215 30.3389 388.633 29.5186C387.08 28.6982 385.117 28.2881 382.744 28.2881C380.459 28.2881 378.555 28.6396 377.031 29.3428C375.508 30.0166 374.365 30.9395 373.604 32.1113C372.842 33.2539 372.461 34.543 372.461 35.9785C372.461 37.0625 372.725 38.0439 373.252 38.9229C373.809 39.8018 374.629 40.6221 375.713 41.3838C376.797 42.1455 378.13 42.8633 379.712 43.5371C381.294 44.2109 383.125 44.8701 385.205 45.5146C388.691 46.5693 391.753 47.7559 394.39 49.0742C397.056 50.3926 399.282 51.8721 401.069 53.5127C402.856 55.1533 404.204 57.0137 405.112 59.0938C406.021 61.1738 406.475 63.5322 406.475 66.1689C406.475 68.9521 405.933 71.4424 404.849 73.6396C403.765 75.8369 402.197 77.6973 400.146 79.2207C398.096 80.7441 395.649 81.9014 392.808 82.6924C389.966 83.4834 386.787 83.8789 383.271 83.8789C380.107 83.8789 376.987 83.4688 373.911 82.6484C370.835 81.7988 368.037 80.5244 365.518 78.8252C363.027 77.126 361.035 74.958 359.541 72.3213C358.047 69.6846 357.3 66.5645 357.3 62.9609H370.527C370.527 64.9531 370.835 66.6377 371.45 68.0146C372.065 69.3916 372.93 70.5049 374.043 71.3545C375.186 72.2041 376.533 72.8193 378.086 73.2002C379.668 73.5811 381.396 73.7715 383.271 73.7715C385.557 73.7715 387.432 73.4492 388.896 72.8047C390.391 72.1602 391.489 71.2666 392.192 70.124C392.925 68.9814 393.291 67.6924 393.291 66.2568ZM437.939 35.4512V44.416H410.254V35.4512H437.939ZM417.109 23.7178H429.766V68.6738C429.766 70.0508 429.941 71.1055 430.293 71.8379C430.674 72.5703 431.23 73.083 431.963 73.376C432.695 73.6396 433.618 73.7715 434.731 73.7715C435.522 73.7715 436.226 73.7422 436.841 73.6836C437.485 73.5957 438.027 73.5078 438.467 73.4199L438.511 82.7363C437.427 83.0879 436.255 83.3662 434.995 83.5713C433.735 83.7764 432.344 83.8789 430.82 83.8789C428.037 83.8789 425.605 83.4248 423.525 82.5166C421.475 81.5791 419.893 80.085 418.779 78.0342C417.666 75.9834 417.109 73.2881 417.109 69.9482V23.7178ZM470.811 72.2773V51.0957C470.811 49.5723 470.562 48.2686 470.063 47.1846C469.565 46.0713 468.789 45.207 467.734 44.5918C466.709 43.9766 465.376 43.6689 463.735 43.6689C462.329 43.6689 461.113 43.918 460.088 44.416C459.062 44.8848 458.271 45.5732 457.715 46.4814C457.158 47.3604 456.88 48.4004 456.88 49.6016H444.224C444.224 47.5801 444.692 45.6611 445.63 43.8447C446.567 42.0283 447.93 40.4316 449.717 39.0547C451.504 37.6484 453.628 36.5498 456.089 35.7588C458.579 34.9678 461.362 34.5723 464.438 34.5723C468.13 34.5723 471.411 35.1875 474.282 36.418C477.153 37.6484 479.409 39.4941 481.05 41.9551C482.72 44.416 483.555 47.4922 483.555 51.1836V71.5303C483.555 74.1377 483.716 76.2764 484.038 77.9463C484.36 79.5869 484.829 81.0225 485.444 82.2529V83H472.656C472.041 81.7109 471.572 80.0996 471.25 78.166C470.957 76.2031 470.811 74.2402 470.811 72.2773ZM472.48 54.04L472.568 61.2031H465.493C463.823 61.2031 462.373 61.3936 461.143 61.7744C459.912 62.1553 458.901 62.6973 458.11 63.4004C457.319 64.0742 456.733 64.8652 456.353 65.7734C456.001 66.6816 455.825 67.6777 455.825 68.7617C455.825 69.8457 456.074 70.8271 456.572 71.7061C457.07 72.5557 457.788 73.2295 458.726 73.7275C459.663 74.1963 460.762 74.4307 462.021 74.4307C463.926 74.4307 465.581 74.0498 466.987 73.2881C468.394 72.5264 469.478 71.5889 470.239 70.4756C471.03 69.3623 471.44 68.3076 471.47 67.3115L474.81 72.6729C474.341 73.874 473.696 75.1191 472.876 76.4082C472.085 77.6973 471.074 78.9131 469.844 80.0557C468.613 81.1689 467.134 82.0918 465.405 82.8242C463.677 83.5273 461.626 83.8789 459.253 83.8789C456.235 83.8789 453.496 83.2783 451.035 82.0771C448.604 80.8467 446.67 79.1621 445.234 77.0234C443.828 74.8555 443.125 72.3945 443.125 69.6406C443.125 67.1504 443.594 64.9385 444.531 63.0049C445.469 61.0713 446.846 59.4453 448.662 58.127C450.508 56.7793 452.808 55.7686 455.562 55.0947C458.315 54.3916 461.509 54.04 465.142 54.04H472.48ZM505.967 45.8223V83H493.311V35.4512H505.22L505.967 45.8223ZM520.293 35.1436L520.073 46.877C519.458 46.7891 518.711 46.7158 517.832 46.6572C516.982 46.5693 516.206 46.5254 515.503 46.5254C513.716 46.5254 512.163 46.7598 510.845 47.2285C509.556 47.668 508.472 48.3271 507.593 49.2061C506.743 50.085 506.099 51.1543 505.659 52.4141C505.249 53.6738 505.015 55.1094 504.956 56.7207L502.407 55.9297C502.407 52.8535 502.715 50.0264 503.33 47.4482C503.945 44.8408 504.839 42.5703 506.011 40.6367C507.212 38.7031 508.677 37.209 510.405 36.1543C512.134 35.0996 514.111 34.5723 516.338 34.5723C517.041 34.5723 517.759 34.6309 518.491 34.748C519.224 34.8359 519.824 34.9678 520.293 35.1436ZM551.758 35.4512V44.416H524.072V35.4512H551.758ZM530.928 23.7178H543.584V68.6738C543.584 70.0508 543.76 71.1055 544.111 71.8379C544.492 72.5703 545.049 73.083 545.781 73.376C546.514 73.6396 547.437 73.7715 548.55 73.7715C549.341 73.7715 550.044 73.7422 550.659 73.6836C551.304 73.5957 551.846 73.5078 552.285 73.4199L552.329 82.7363C551.245 83.0879 550.073 83.3662 548.813 83.5713C547.554 83.7764 546.162 83.8789 544.639 83.8789C541.855 83.8789 539.424 83.4248 537.344 82.5166C535.293 81.5791 533.711 80.085 532.598 78.0342C531.484 75.9834 530.928 73.2881 530.928 69.9482V23.7178ZM580.85 83.8789C577.158 83.8789 573.848 83.293 570.918 82.1211C567.988 80.9199 565.498 79.2646 563.447 77.1553C561.426 75.0459 559.873 72.5996 558.789 69.8164C557.705 67.0039 557.163 64.0156 557.163 60.8516V59.0938C557.163 55.4902 557.676 52.1943 558.701 49.2061C559.727 46.2178 561.191 43.625 563.096 41.4277C565.029 39.2305 567.373 37.5459 570.127 36.374C572.881 35.1729 575.986 34.5723 579.443 34.5723C582.812 34.5723 585.801 35.1289 588.408 36.2422C591.016 37.3555 593.198 38.9375 594.956 40.9883C596.743 43.0391 598.091 45.5 598.999 48.3711C599.907 51.2129 600.361 54.377 600.361 57.8633V63.1367H562.568V54.6992H587.925V53.7324C587.925 51.9746 587.603 50.4072 586.958 49.0303C586.343 47.624 585.405 46.5107 584.146 45.6904C582.886 44.8701 581.274 44.46 579.312 44.46C577.642 44.46 576.206 44.8262 575.005 45.5586C573.804 46.291 572.822 47.3164 572.061 48.6348C571.328 49.9531 570.771 51.5059 570.391 53.293C570.039 55.0508 569.863 56.9844 569.863 59.0938V60.8516C569.863 62.7559 570.127 64.5137 570.654 66.125C571.211 67.7363 571.987 69.1279 572.983 70.2998C574.009 71.4717 575.239 72.3799 576.675 73.0244C578.14 73.6689 579.795 73.9912 581.641 73.9912C583.926 73.9912 586.05 73.5518 588.013 72.6729C590.005 71.7646 591.719 70.4023 593.154 68.5859L599.307 75.2656C598.311 76.7012 596.948 78.0781 595.22 79.3965C593.521 80.7148 591.47 81.7988 589.067 82.6484C586.665 83.4688 583.926 83.8789 580.85 83.8789ZM620.225 45.8223V83H607.568V35.4512H619.478L620.225 45.8223ZM634.551 35.1436L634.331 46.877C633.716 46.7891 632.969 46.7158 632.09 46.6572C631.24 46.5693 630.464 46.5254 629.761 46.5254C627.974 46.5254 626.421 46.7598 625.103 47.2285C623.813 47.668 622.729 48.3271 621.851 49.2061C621.001 50.085 620.356 51.1543 619.917 52.4141C619.507 53.6738 619.272 55.1094 619.214 56.7207L616.665 55.9297C616.665 52.8535 616.973 50.0264 617.588 47.4482C618.203 44.8408 619.097 42.5703 620.269 40.6367C621.47 38.7031 622.935 37.209 624.663 36.1543C626.392 35.0996 628.369 34.5723 630.596 34.5723C631.299 34.5723 632.017 34.6309 632.749 34.748C633.481 34.8359 634.082 34.9678 634.551 35.1436ZM676.914 19.0156V83H663.73V19.0156H676.914ZM715.234 19.0156L689.878 50.6123L675.244 66.3447L672.871 53.8643L682.759 40.3291L699.062 19.0156H715.234ZM700.249 83L681.396 53.4248L691.152 45.251L715.85 83H700.249ZM733.516 35.4512V83H720.815V35.4512H733.516ZM720.024 23.0586C720.024 21.2129 720.669 19.6895 721.958 18.4883C723.247 17.2871 724.976 16.6865 727.144 16.6865C729.282 16.6865 730.996 17.2871 732.285 18.4883C733.604 19.6895 734.263 21.2129 734.263 23.0586C734.263 24.9043 733.604 26.4277 732.285 27.6289C730.996 28.8301 729.282 29.4307 727.144 29.4307C724.976 29.4307 723.247 28.8301 721.958 27.6289C720.669 26.4277 720.024 24.9043 720.024 23.0586ZM767.266 35.4512V44.416H739.58V35.4512H767.266ZM746.436 23.7178H759.092V68.6738C759.092 70.0508 759.268 71.1055 759.619 71.8379C760 72.5703 760.557 73.083 761.289 73.376C762.021 73.6396 762.944 73.7715 764.058 73.7715C764.849 73.7715 765.552 73.7422 766.167 73.6836C766.812 73.5957 767.354 73.5078 767.793 73.4199L767.837 82.7363C766.753 83.0879 765.581 83.3662 764.321 83.5713C763.062 83.7764 761.67 83.8789 760.146 83.8789C757.363 83.8789 754.932 83.4248 752.852 82.5166C750.801 81.5791 749.219 80.085 748.105 78.0342C746.992 75.9834 746.436 73.2881 746.436 69.9482V23.7178Z" fill="#333333"/>
<path d="M72.1508 49.1383C72.1508 45.1406 67.4112 41.5955 60.1237 39.4313C61.8769 32.0799 61.1113 26.2313 57.6224 24.2527C56.7669 23.781 55.8016 23.5409 54.8231 23.5565C51.568 23.5565 47.4538 25.8135 43.2986 29.7184C39.1435 25.8425 35.041 23.5971 31.7917 23.5971C30.7981 23.5753 29.8169 23.8198 28.9515 24.305C25.4801 26.2893 24.7613 32.1031 26.4911 39.4197C19.2386 41.5723 14.5225 45.0884 14.5108 49.0687C14.4991 53.049 19.2562 56.6116 26.5437 58.77C24.7905 66.1272 25.5502 71.97 29.045 73.9485C29.8973 74.4229 30.8615 74.6632 31.8384 74.6448C35.0994 74.6448 39.2136 72.3877 43.3688 68.4829C47.518 72.3587 51.6206 74.6042 54.8757 74.6042C55.8689 74.6223 56.8491 74.378 57.7159 73.8963C61.1873 71.912 61.9003 66.0982 60.1763 58.8106C67.4288 56.629 72.1449 53.1128 72.1508 49.1383ZM45.9752 31.0297C50.7615 26.7767 53.7537 26.3183 54.8173 26.3183C55.3106 26.3026 55.799 26.4188 56.2315 26.6548C57.9029 27.6006 58.5692 30.9369 58.0374 35.3581C57.9011 36.4872 57.7061 37.6086 57.453 38.7176C55.0313 38.1588 52.5755 37.7576 50.1011 37.5166C48.6277 35.4637 47.019 33.5099 45.2856 31.6679C45.5018 31.4533 45.7356 31.2386 45.9752 31.0297ZM31.4878 52.4282C31.9436 53.2985 32.4287 54.1688 32.9313 55.045C33.4339 55.9211 33.9598 56.8088 34.5442 57.685C32.9605 57.4587 31.4235 57.1744 29.9625 56.8379C30.3716 55.3641 30.8917 53.9136 31.4878 52.4282ZM29.869 41.3808C31.3475 41.0385 32.8962 40.7542 34.5033 40.5337C33.9189 41.3924 33.4163 42.2744 32.8904 43.1969C32.3644 44.1194 31.9027 44.9376 31.4527 45.8195C30.8566 44.3109 30.3287 42.8314 29.869 41.3808ZM32.9137 49.1209C33.6384 47.6008 34.4351 46.0806 35.304 44.5604C36.1806 43.0402 37.1215 41.5607 38.0916 40.1449C39.7922 40.0173 41.5454 39.9477 43.3512 39.9535C45.157 39.9593 46.8577 40.0231 48.5466 40.1566C49.5167 41.5607 50.4459 43.0576 51.3225 44.5372C52.1991 46.0168 53.0056 47.566 53.7303 49.0803C53.0115 50.6005 52.2108 52.1265 51.3459 53.635C50.481 55.1436 49.5284 56.6406 48.5583 58.0563C46.8577 58.1898 45.1045 58.2536 43.2986 58.2536C41.4928 58.2536 39.7922 58.1782 38.1033 58.0447C37.1332 56.6406 36.1981 55.1784 35.3215 53.6641C34.4449 52.1497 33.6676 50.6353 32.9371 49.1209H32.9137ZM52.1173 40.5511C53.7069 40.7716 55.2439 41.0559 56.6991 41.3924C56.2666 42.8256 55.7523 44.2935 55.1562 45.7731C54.6946 44.9027 54.2153 44.0324 53.7069 43.1563C53.1985 42.2802 52.6608 41.3982 52.1407 40.5511H52.1173ZM53.7303 55.0102C54.2329 54.1321 54.7121 53.256 55.1679 52.3818C55.7523 53.8903 56.3367 55.3757 56.7458 56.8263C55.2731 57.1686 53.7244 57.4471 52.1173 57.6676C52.6823 56.8088 53.2277 55.923 53.7537 55.0102H53.7303ZM43.3103 33.6407C44.3623 34.7547 45.3967 35.9616 46.4077 37.2555C45.4083 37.2148 44.3856 37.1858 43.3512 37.1858C42.3168 37.1858 41.2591 37.1858 40.2364 37.2555C41.2357 35.9674 42.2584 34.7547 43.3103 33.6407ZM30.3482 26.6781C30.7916 26.4439 31.29 26.3318 31.7917 26.3531C32.8446 26.3967 33.8771 26.6555 34.8248 27.1132C36.9664 28.1157 38.938 29.4429 40.6688 31.0471L41.3526 31.6679C39.6369 33.4964 38.0439 35.4346 36.5838 37.4701C34.0961 37.7094 31.6267 38.1087 29.1911 38.6654C28.9339 37.5398 28.7236 36.4373 28.6067 35.3755C27.9989 30.9949 28.7002 27.6528 30.3424 26.7013L30.3482 26.6781ZM27.2567 56.0952C26.1586 55.7624 25.0781 55.3751 24.0191 54.9347C19.8698 53.1941 17.2984 50.9602 17.2984 49.0513C17.2984 47.1424 19.8815 44.9202 24.0249 43.2085C25.065 42.7808 26.1261 42.4051 27.2041 42.0829C27.9347 44.4867 28.8249 46.8398 29.869 49.1267C28.8471 51.3909 27.9745 53.7186 27.2567 56.0952ZM40.698 67.1774C35.9117 71.4304 32.9196 71.8829 31.8501 71.8829C31.3568 71.8993 30.8682 71.783 30.4359 71.5464C28.7645 70.6007 28.0982 67.2644 28.63 62.8431C28.7658 61.7159 28.9608 60.5965 29.2145 59.4895C31.6368 60.0435 34.0925 60.4427 36.5663 60.6847C38.038 62.7389 39.6467 64.6929 41.3818 66.5333L40.698 67.1774ZM43.3688 64.5606C42.3168 63.4466 41.2824 62.2397 40.2656 60.9458C41.2707 60.9922 42.2935 61.0154 43.3279 61.0154C44.3623 61.0154 45.42 61.0154 46.4427 60.9516C45.4317 62.2397 44.4032 63.4466 43.3629 64.5606H43.3688ZM56.3309 71.5232C55.8875 71.7644 55.3869 71.8826 54.8816 71.8655C53.8179 71.8655 50.7907 71.4014 46.022 67.1658L45.3382 66.5449C47.0519 64.7163 48.643 62.7781 50.1011 60.7427C52.5912 60.5068 55.0628 60.1075 57.4997 59.5475C57.7568 60.6731 57.9614 61.7755 58.0841 62.8373C58.6627 67.2122 57.9906 70.5542 56.325 71.5L56.3309 71.5232ZM62.6425 55.0218C61.6431 55.4279 60.5854 55.8051 59.4633 56.1416C58.7299 53.7379 57.8377 51.3849 56.7926 49.0977C57.8191 46.8361 58.6956 44.5103 59.4166 42.1351C60.5146 42.4679 61.5952 42.8552 62.6542 43.2955C66.7976 45.0362 69.3748 47.27 69.369 49.179C69.3631 51.0879 66.7859 53.2869 62.6366 54.9986L62.6425 55.0218ZM43.3103 54.43C46.2732 54.4332 48.6778 52.051 48.681 49.1093C48.6842 46.1676 46.2849 43.7803 43.322 43.7771C40.3591 43.7739 37.9546 46.156 37.9513 49.0977C37.9482 50.5109 38.5115 51.8672 39.5168 52.8675C40.5221 53.8678 41.887 54.43 43.3103 54.43ZM7.66156 17V81.2013H79V17H7.66156ZM76.2124 78.4394H10.455V19.7676H76.2124V78.4394ZM26.5379 58.77C24.7847 66.1272 25.5444 71.97 29.0391 73.9485C29.8914 74.4229 30.8557 74.6632 31.8326 74.6448C35.0936 74.6448 39.2078 72.3877 43.3629 68.4829C47.5122 72.3587 51.6147 74.6042 54.8699 74.6042C55.8631 74.6223 56.8433 74.378 57.7101 73.8963C61.1815 71.912 61.8944 66.0982 60.1704 58.8106C67.4229 56.6522 72.1391 53.1361 72.1449 49.1616C72.1508 45.1871 67.4054 41.6187 60.1178 39.4545C61.8711 32.1031 61.1055 26.2545 57.6166 24.276C56.7611 23.8042 55.7957 23.5641 54.8173 23.5797C51.5621 23.5797 47.4479 25.8367 43.2928 29.7416C39.1377 25.8658 35.0351 23.6203 31.7858 23.6203C30.7922 23.5985 29.8111 23.843 28.9456 24.3282C25.4743 26.3125 24.7554 32.1263 26.4853 39.4429C19.2328 41.5955 14.5166 45.1116 14.5049 49.0919C14.4933 53.0722 19.2562 56.6 26.5437 58.77H26.5379ZM40.6863 67.1774C35.9001 71.4304 32.9079 71.8829 31.8384 71.8829C31.3451 71.8993 30.8565 71.783 30.4242 71.5464C28.7528 70.6007 28.0866 67.2644 28.6184 62.8431C28.7541 61.7159 28.9492 60.5965 29.2028 59.4895C31.6251 60.0435 34.0808 60.4427 36.5546 60.6847C38.0263 62.7389 39.635 64.6929 41.3701 66.5333L40.6863 67.1774ZM55.1738 45.7731C54.7121 44.9027 54.2329 44.0324 53.7244 43.1563C53.216 42.2802 52.6725 41.4156 52.1349 40.5511C53.7244 40.7716 55.2614 41.0559 56.7166 41.3924C56.29 42.8256 55.7757 44.2935 55.1796 45.7731H55.1738ZM56.7634 56.7972C55.2906 57.1396 53.742 57.4181 52.1349 57.6386C52.6842 56.7798 53.2219 55.894 53.7478 54.9812C54.2738 54.0683 54.753 53.1921 55.1855 52.3528C55.7991 53.8903 56.3309 55.3641 56.7517 56.8263L56.7634 56.7972ZM53.7186 49.0513C52.9998 50.5715 52.1991 52.0975 51.3342 53.606C50.4693 55.1146 49.5167 56.6116 48.5466 58.0273C46.846 58.1608 45.0928 58.2246 43.287 58.2246C41.4811 58.2246 39.7805 58.1492 38.0916 58.0157C37.1215 56.6116 36.1864 55.1494 35.3098 53.635C34.4332 52.1207 33.6326 50.6063 32.9021 49.0919C33.6267 47.5718 34.4235 46.0516 35.2923 44.5314C36.1689 43.0112 37.1098 41.5317 38.0799 40.1159C39.7805 39.9883 41.5337 39.9187 43.3395 39.9245C45.1454 39.9303 46.846 39.9941 48.5349 40.1275C49.505 41.5317 50.4342 43.0286 51.3108 44.5082C52.1875 45.9878 52.9998 47.566 53.7244 49.0803L53.7186 49.0513ZM34.5442 57.685C32.9605 57.4587 31.4235 57.1744 29.9625 56.8379C30.395 55.4105 30.9151 53.9368 31.5112 52.4572C31.967 53.3275 32.4521 54.1979 32.9547 55.074C33.4572 55.9501 33.9598 56.8088 34.5442 57.685ZM32.9137 43.1795C32.4053 44.0498 31.9261 44.9202 31.4761 45.8021C30.8644 44.3051 30.3287 42.8314 29.869 41.3808C31.3475 41.0385 32.8962 40.7542 34.5033 40.5337C33.9598 41.3924 33.4397 42.2802 32.9137 43.1795ZM43.3629 64.5606C42.311 63.4466 41.2766 62.2397 40.2597 60.9458C41.2649 60.9922 42.2876 61.0154 43.322 61.0154C44.3564 61.0154 45.4142 61.0154 46.4369 60.9516C45.4317 62.2397 44.4032 63.4466 43.3629 64.5606ZM56.325 71.5232C55.8816 71.7644 55.381 71.8826 54.8757 71.8655C53.8121 71.8655 50.7849 71.4014 46.0161 67.1658L45.3324 66.5449C47.0461 64.7163 48.6371 62.7781 50.0953 60.7427C52.5853 60.5068 55.0569 60.1075 57.4939 59.5475C57.751 60.6731 57.9555 61.7755 58.0783 62.8373C58.6627 67.2122 57.9906 70.5542 56.325 71.5V71.5232ZM59.4107 42.1293C60.5088 42.4621 61.5893 42.8494 62.6483 43.2897C66.7918 45.0304 69.369 47.2642 69.3632 49.1732C69.3573 51.0821 66.7859 53.3275 62.6366 55.0392C61.6373 55.4453 60.5795 55.8225 59.4575 56.159C58.724 53.7554 57.8318 51.4023 56.7867 49.1151C57.8152 46.8384 58.6917 44.497 59.4107 42.1061V42.1293ZM45.9694 31.0529C50.7557 26.7999 53.7478 26.3415 54.8114 26.3415C55.3047 26.3258 55.7932 26.442 56.2257 26.6781C57.8971 27.6238 58.5633 30.9601 58.0315 35.3813C57.8953 36.5104 57.7002 37.6318 57.4471 38.7408C55.0254 38.182 52.5696 37.7808 50.0953 37.5398C48.6218 35.4869 47.0131 33.5331 45.2798 31.6912C45.5019 31.4533 45.7356 31.2386 45.9752 31.0297L45.9694 31.0529ZM43.3103 33.6407C44.3623 34.7547 45.3967 35.9616 46.4077 37.2555C45.4083 37.2148 44.3856 37.1858 43.3512 37.1858C42.3168 37.1858 41.2591 37.1858 40.2364 37.2555C41.2357 35.9674 42.2584 34.7547 43.3103 33.6407ZM30.3482 26.6781C30.7916 26.4439 31.29 26.3318 31.7917 26.3531C32.8446 26.3967 33.8771 26.6555 34.8248 27.1132C36.9664 28.1157 38.938 29.4429 40.6688 31.0471L41.3526 31.6679C39.6369 33.4964 38.0439 35.4346 36.5838 37.4701C34.0961 37.7094 31.6267 38.1087 29.1911 38.6654C28.9339 37.5398 28.7236 36.4373 28.6067 35.3755C27.9989 30.9949 28.7002 27.6528 30.3424 26.7013L30.3482 26.6781ZM24.0249 43.2085C25.065 42.7808 26.1261 42.4051 27.2041 42.0829C27.9347 44.4867 28.8249 46.8398 29.869 49.1267C28.8434 51.3888 27.9669 53.7145 27.245 56.0894C26.1469 55.7565 25.0664 55.3692 24.0074 54.9289C19.8581 53.1883 17.2867 50.9544 17.2867 49.0455C17.2867 47.1366 19.8815 44.9202 24.0249 43.2085ZM43.3103 43.7887C40.3474 43.7855 37.9429 46.1676 37.9396 49.1093C37.9364 52.051 40.3357 54.4383 43.2986 54.4415C46.2616 54.4447 48.6661 52.0626 48.6693 49.1209C48.6802 47.7028 48.1204 46.339 47.1143 45.3324C46.1081 44.3258 44.7387 43.7597 43.3103 43.7597V43.7887ZM43.3103 43.7887C40.3474 43.7855 37.9429 46.1676 37.9396 49.1093C37.9364 52.051 40.3357 54.4383 43.2986 54.4415C46.2616 54.4447 48.6661 52.0626 48.6693 49.1209C48.6802 47.7028 48.1204 46.339 47.1143 45.3324C46.1081 44.3258 44.7387 43.7597 43.3103 43.7597V43.7887ZM43.3103 43.7887C40.3474 43.7855 37.9429 46.1676 37.9396 49.1093C37.9364 52.051 40.3357 54.4383 43.2986 54.4415C46.2616 54.4447 48.6661 52.0626 48.6693 49.1209C48.6802 47.7028 48.1204 46.339 47.1143 45.3324C46.1081 44.3258 44.7387 43.7597 43.3103 43.7597V43.7887ZM72.1508 49.15C72.1508 45.1522 67.4112 41.6071 60.1237 39.4429C61.8769 32.0915 61.1113 26.2429 57.6224 24.2643C56.7669 23.7926 55.8016 23.5525 54.8231 23.5681C51.568 23.5681 47.4538 25.8251 43.2986 29.73C39.1435 25.8541 35.041 23.6087 31.7917 23.6087C30.7981 23.5869 29.8169 23.8314 28.9515 24.3166C25.4801 26.3009 24.7613 32.1147 26.4911 39.4313C19.2386 41.5839 14.5225 45.1 14.5108 49.0803C14.4991 53.0606 19.2562 56.6232 26.5437 58.7816C24.7905 66.1388 25.5502 71.9816 29.045 73.9601C29.8973 74.4345 30.8615 74.6748 31.8384 74.6564C35.0994 74.6564 39.2136 72.3993 43.3688 68.4945C47.518 72.3703 51.6206 74.6158 54.8757 74.6158C55.8689 74.6339 56.8491 74.3896 57.7159 73.9079C61.1873 71.9236 61.9003 66.1098 60.1763 58.8222C67.4288 56.629 72.1449 53.1128 72.1508 49.1383V49.15ZM45.9752 31.0297C50.7615 26.7767 53.7537 26.3183 54.8173 26.3183C55.3106 26.3026 55.799 26.4188 56.2315 26.6548C57.9029 27.6006 58.5692 30.9369 58.0374 35.3581C57.9011 36.4872 57.7061 37.6086 57.453 38.7176C55.0313 38.1588 52.5755 37.7576 50.1011 37.5166C48.6277 35.4637 47.019 33.5099 45.2856 31.6679C45.5018 31.4533 45.7356 31.2386 45.9752 31.0297ZM31.4878 52.4282C31.9436 53.2985 32.4287 54.1688 32.9313 55.045C33.4339 55.9211 33.9598 56.8088 34.5442 57.685C32.9605 57.4587 31.4235 57.1744 29.9625 56.8379C30.3716 55.3641 30.8917 53.9136 31.4878 52.4282ZM29.869 41.3808C31.3475 41.0385 32.8962 40.7542 34.5033 40.5337C33.9189 41.3924 33.4163 42.2744 32.8904 43.1969C32.3644 44.1194 31.9027 44.9376 31.4527 45.8195C30.8566 44.3109 30.3287 42.8314 29.869 41.3808ZM32.9137 49.1209C33.6384 47.6008 34.4351 46.0806 35.304 44.5604C36.1806 43.0402 37.1215 41.5607 38.0916 40.1449C39.7922 40.0173 41.5454 39.9477 43.3512 39.9535C45.157 39.9593 46.8577 40.0231 48.5466 40.1566C49.5167 41.5607 50.4459 43.0576 51.3225 44.5372C52.1991 46.0168 53.0056 47.566 53.7303 49.0803C53.0115 50.6005 52.2108 52.1265 51.3459 53.635C50.481 55.1436 49.5284 56.6406 48.5583 58.0563C46.8577 58.1898 45.1045 58.2536 43.2986 58.2536C41.4928 58.2536 39.7922 58.1782 38.1033 58.0447C37.1332 56.6406 36.1981 55.1784 35.3215 53.6641C34.4449 52.1497 33.6676 50.6353 32.9371 49.1209H32.9137ZM52.1173 40.5511C53.7069 40.7716 55.2439 41.0559 56.6991 41.3924C56.2666 42.8256 55.7523 44.2935 55.1562 45.7731C54.6946 44.9027 54.2153 44.0324 53.7069 43.1563C53.1985 42.2802 52.6608 41.3982 52.1407 40.5511H52.1173ZM53.7303 55.0102C54.2329 54.1321 54.7121 53.256 55.1679 52.3818C55.7523 53.8903 56.3367 55.3757 56.7458 56.8263C55.2731 57.1686 53.7244 57.4471 52.1173 57.6676C52.6823 56.8088 53.2277 55.923 53.7537 55.0102H53.7303ZM43.3103 33.6407C44.3623 34.7547 45.3967 35.9616 46.4077 37.2555C45.4083 37.2148 44.3856 37.1858 43.3512 37.1858C42.3168 37.1858 41.2591 37.1858 40.2364 37.2555C41.2357 35.9674 42.2584 34.7547 43.3103 33.6407ZM30.3482 26.6781C30.7916 26.4439 31.29 26.3318 31.7917 26.3531C32.8446 26.3967 33.8771 26.6555 34.8248 27.1132C36.9664 28.1157 38.938 29.4429 40.6688 31.0471L41.3526 31.6679C39.6369 33.4964 38.0439 35.4346 36.5838 37.4701C34.0961 37.7094 31.6267 38.1087 29.1911 38.6654C28.9339 37.5398 28.7236 36.4373 28.6067 35.3755C27.9989 30.9949 28.7002 27.6528 30.3424 26.7013L30.3482 26.6781ZM27.2567 56.0952C26.1586 55.7624 25.0781 55.3751 24.0191 54.9347C19.8698 53.1941 17.2984 50.9602 17.2984 49.0513C17.2984 47.1424 19.8815 44.9202 24.0249 43.2085C25.065 42.7808 26.1261 42.4051 27.2041 42.0829C27.9347 44.4867 28.8249 46.8398 29.869 49.1267C28.8471 51.3909 27.9745 53.7186 27.2567 56.0952ZM40.698 67.1774C35.9117 71.4304 32.9196 71.8829 31.8501 71.8829C31.3568 71.8993 30.8682 71.783 30.4359 71.5464C28.7645 70.6007 28.0982 67.2644 28.63 62.8431C28.7658 61.7159 28.9608 60.5965 29.2145 59.4895C31.6368 60.0435 34.0925 60.4427 36.5663 60.6847C38.038 62.7389 39.6467 64.6929 41.3818 66.5333L40.698 67.1774ZM43.3688 64.5606C42.3168 63.4466 41.2824 62.2397 40.2656 60.9458C41.2707 60.9922 42.2935 61.0154 43.3279 61.0154C44.3623 61.0154 45.42 61.0154 46.4427 60.9516C45.4317 62.2397 44.4032 63.4466 43.3629 64.5606H43.3688ZM56.3309 71.5232C55.8875 71.7644 55.3869 71.8826 54.8816 71.8655C53.8179 71.8655 50.7907 71.4014 46.022 67.1658L45.3382 66.5449C47.0519 64.7163 48.643 62.7781 50.1011 60.7427C52.5912 60.5068 55.0628 60.1075 57.4997 59.5475C57.7568 60.6731 57.9614 61.7755 58.0841 62.8373C58.6627 67.2122 57.9906 70.5542 56.325 71.5L56.3309 71.5232ZM62.6425 55.0218C61.6431 55.4279 60.5854 55.8051 59.4633 56.1416C58.7299 53.7379 57.8377 51.3849 56.7926 49.0977C57.8191 46.8361 58.6956 44.5103 59.4166 42.1351C60.5146 42.4679 61.5952 42.8552 62.6542 43.2955C66.7976 45.0362 69.3748 47.27 69.369 49.179C69.3631 51.0879 66.7859 53.2869 62.6366 54.9986L62.6425 55.0218ZM43.3103 54.43C46.2732 54.4332 48.6778 52.051 48.681 49.1093C48.6842 46.1676 46.2849 43.7803 43.322 43.7771C40.3591 43.7739 37.9546 46.156 37.9513 49.0977C37.9482 50.5109 38.5115 51.8672 39.5168 52.8675C40.5221 53.8678 41.887 54.43 43.3103 54.43ZM2.7993 86.0519V21.8274L0 24.6125V88.8195H71.3267L74.1202 86.0519H2.7993Z" fill="#09D3AC"/>
</svg>
